<svg id="Layer_1" data-name="Layer 1" xmlns="http://www.w3.org/2000/svg" viewBox="0 0 11.34 11.34"><defs><style>.cls-1{fill:#fff;}.cls-2{fill:none;stroke:#000;stroke-width:0.65px;}</style></defs><rect class="cls-1" x="0.33" y="0.33" width="7.85" height="7.85" rx="0.83"/><rect class="cls-2" x="0.33" y="0.33" width="7.85" height="7.85" rx="0.83"/><path d="M2.19,7.08A.77.77,0,1,1,3,6.31a.77.77,0,0,1-.78.77"/><path d="M2.19,3A.78.78,0,1,1,3,2.2.78.78,0,0,1,2.19,3"/><path d="M2.19,5A.78.78,0,1,1,3,4.25.78.78,0,0,1,2.19,5"/><path d="M6.31,7.08a.77.77,0,1,1,.77-.77.76.76,0,0,1-.77.77"/><path d="M6.31,3a.78.78,0,1,1,.77-.77A.77.77,0,0,1,6.31,3"/><path d="M6.31,5a.78.78,0,1,1,.77-.78A.77.77,0,0,1,6.31,5"/><rect class="cls-1" x="3.16" y="3.16" width="7.85" height="7.85" rx="0.83"/><rect class="cls-2" x="3.16" y="3.16" width="7.85" height="7.85" rx="0.83"/><path d="M5,9.92a.78.78,0,1,1,.77-.77A.77.77,0,0,1,5,9.92"/><path d="M5,5.8A.77.77,0,1,1,5.8,5,.76.76,0,0,1,5,5.8"/><path d="M5,7.86a.77.77,0,1,1,.77-.77A.76.76,0,0,1,5,7.86"/><path d="M9.14,9.92a.78.78,0,1,1,.78-.77.78.78,0,0,1-.78.77"/><path d="M9.14,5.8A.77.77,0,1,1,9.92,5a.77.77,0,0,1-.78.77"/><path d="M9.14,7.86a.77.77,0,1,1,.78-.77.77.77,0,0,1-.78.77"/></svg>