<svg id="Layer_1" data-name="Layer 1" xmlns="http://www.w3.org/2000/svg" viewBox="0 0 8.5 8.5"><defs><style>.cls-1{fill:#fff;}.cls-2{fill:none;stroke:#000;stroke-width:0.65px;}</style></defs><rect class="cls-1" x="0.33" y="0.33" width="7.85" height="7.85" rx="0.83"/><rect class="cls-2" x="0.33" y="0.33" width="7.85" height="7.85" rx="0.83"/><path d="M6.31,7.08a.77.77,0,1,0-.77-.77.76.76,0,0,0,.77.77"/><path d="M6.31,3a.78.78,0,1,0-.77-.77A.77.77,0,0,0,6.31,3"/><path d="M6.31,5a.78.78,0,1,0-.77-.78A.77.77,0,0,0,6.31,5"/><path d="M2.19,7.08a.77.77,0,1,0-.77-.77.77.77,0,0,0,.77.77"/><path d="M2.19,3a.78.78,0,1,0-.77-.77A.78.78,0,0,0,2.19,3"/><path d="M2.19,5a.78.78,0,1,0-.77-.78A.78.78,0,0,0,2.19,5"/></svg>