<svg id="Layer_1" data-name="Layer 1" xmlns="http://www.w3.org/2000/svg" viewBox="0 0 27.69 14.17"><defs><style>.cls-1{fill:#9d9d9c;}.cls-2{fill:none;stroke:#000;stroke-width:0.65px;}.cls-3{fill:#fff;}</style></defs><rect class="cls-1" x="13.84" y="0.33" width="7.85" height="7.85" rx="0.83"/><rect class="cls-2" x="13.84" y="0.33" width="7.85" height="7.85" rx="0.83"/><path d="M19.82,7.08a.77.77,0,1,0-.77-.77.77.77,0,0,0,.77.77"/><path d="M19.82,3a.78.78,0,1,0-.77-.77.78.78,0,0,0,.77.77"/><path d="M19.82,5a.78.78,0,1,0-.77-.78.78.78,0,0,0,.77.78"/><path d="M15.71,7.08a.77.77,0,1,0-.78-.77.77.77,0,0,0,.78.77"/><path d="M15.71,3a.78.78,0,1,0-.78-.77.78.78,0,0,0,.78.77"/><rect class="cls-1" x="16.67" y="3.16" width="7.85" height="7.85" rx="0.83"/><rect class="cls-2" x="16.67" y="3.16" width="7.85" height="7.85" rx="0.83"/><path d="M22.66,9.92a.78.78,0,1,0-.78-.77.78.78,0,0,0,.78.77"/><path d="M22.66,5.8A.77.77,0,1,0,21.88,5a.77.77,0,0,0,.78.77"/><path d="M22.66,7.86a.77.77,0,1,0-.78-.77.77.77,0,0,0,.78.77"/><path d="M18.54,9.92a.78.78,0,1,0-.77-.77.77.77,0,0,0,.77.77"/><rect class="cls-1" x="19.51" y="6" width="7.85" height="7.85" rx="0.83"/><rect class="cls-2" x="19.51" y="6" width="7.85" height="7.85" rx="0.83"/><path d="M23.43,10.7a.78.78,0,1,0-.77-.78.78.78,0,0,0,.77.78"/><rect class="cls-3" x="0.33" y="0.33" width="7.85" height="7.85" rx="0.83"/><rect class="cls-2" x="0.33" y="0.33" width="7.85" height="7.85" rx="0.83"/><path d="M6.31,7.08a.77.77,0,1,0-.77-.77.76.76,0,0,0,.77.77"/><path d="M6.31,3a.78.78,0,1,0-.77-.77A.77.77,0,0,0,6.31,3"/><path d="M6.31,5a.78.78,0,1,0-.77-.78A.77.77,0,0,0,6.31,5"/><path d="M2.19,7.08a.77.77,0,1,0-.77-.77.77.77,0,0,0,.77.77"/><path d="M2.19,3a.78.78,0,1,0-.77-.77A.78.78,0,0,0,2.19,3"/><path d="M2.19,5a.78.78,0,1,0-.77-.78A.78.78,0,0,0,2.19,5"/><rect class="cls-3" x="3.16" y="3.16" width="7.85" height="7.85" rx="0.83"/><rect class="cls-2" x="3.16" y="3.16" width="7.85" height="7.85" rx="0.83"/><path d="M9.14,9.92a.78.78,0,1,0-.77-.77.78.78,0,0,0,.77.77"/><path d="M9.14,5.8A.77.77,0,1,0,8.37,5a.77.77,0,0,0,.77.77"/><path d="M9.14,7.86a.77.77,0,1,0-.77-.77.77.77,0,0,0,.77.77"/><path d="M5,9.92a.78.78,0,1,0-.77-.77A.77.77,0,0,0,5,9.92"/><path d="M5,5.8A.77.77,0,1,0,4.26,5,.76.76,0,0,0,5,5.8"/><path d="M5,7.86a.77.77,0,1,0-.77-.77A.76.76,0,0,0,5,7.86"/><rect class="cls-3" x="6" y="6" width="7.85" height="7.85" rx="0.83"/><rect class="cls-2" x="6" y="6" width="7.85" height="7.85" rx="0.83"/><path d="M12,12.75a.77.77,0,1,0-.77-.77.76.76,0,0,0,.77.77"/><path d="M12,8.64a.78.78,0,1,0-.77-.77.77.77,0,0,0,.77.77"/><path d="M12,10.7a.78.78,0,1,0-.77-.78.77.77,0,0,0,.77.78"/><path d="M7.86,12.75A.77.77,0,1,0,7.09,12a.77.77,0,0,0,.77.77"/><path d="M7.86,8.64a.78.78,0,1,0-.77-.77.78.78,0,0,0,.77.77"/><path d="M7.86,10.7a.78.78,0,1,0-.77-.78.78.78,0,0,0,.77.78"/></svg>